<svg width="400" height="400" viewBox="0 0 400 400" fill="none" xmlns="http://www.w3.org/2000/svg">
<path d="M274 140C274 135.264 271.632 131.092 268.032 128.56C269.268 126.672 270 124.424 270 122C270 116.216 265.908 111.392 260.46 110.256C261.412 108.368 262 106.26 262 104C262 96.876 256.66 91.064 249.78 90.18C249.892 89.464 250 88.748 250 88C250 80.268 243.732 74 236 74C234.9 74 233.844 74.156 232.816 74.396C230.652 69.46 225.736 66 220 66C218.432 66 216.948 66.316 215.54 66.792C213.348 63.9 209.908 62 206 62C202.912 62 200.128 63.2 198 65.116C195.872 63.2 193.088 62 190 62C186.092 62 182.652 63.9 180.46 66.792C179.052 66.316 177.568 66 176 66C170.264 66 165.348 69.46 163.184 74.396C162.156 74.156 161.1 74 160 74C152.268 74 146 80.268 146 88C146 88.748 146.108 89.464 146.22 90.18C139.34 91.064 134 96.876 134 104C134 106.26 134.588 108.368 135.54 110.256C130.092 111.392 126 116.216 126 122C126 124.424 126.732 126.672 127.968 128.56C124.368 131.092 122 135.264 122 140C122 144.472 124.136 148.408 127.4 150.972C126.532 152.456 126 154.16 126 156C126 161.524 130.476 166 136 166C139.26 166 256.74 166 260 166C265.524 166 270 161.524 270 156C270 154.16 269.468 152.456 268.6 150.972C271.864 148.408 274 144.472 274 140Z" fill="#565FA1"/>
<path d="M272 292C254.7 285.512 243.248 281.364 236.372 278.92C235.228 278.512 234.212 278.156 233.316 277.84C230.112 276.712 228 273.7 228 270.304V258.168C245.768 246.612 260 227.996 260 220C260 216 260 204 260 204C268 204 269.524 196.408 272 188C274.28 180.26 276 172 276 168C276 160.5 254 158 254 158H253.984C253.86 151 252.684 126.372 242.5 106C242.5 106 226 98 200 98C174 98 157.5 106 157.5 106C147.288 126.428 145.772 151.136 145.544 158.056C142.532 158.444 124 161.108 124 168C124 172 125.72 180.26 128 188C130.476 196.408 132 204 140 204C140 204 140 216 140 220C140 227.996 154.232 246.612 172 258.168V270.304C172 273.7 169.888 276.712 166.684 277.84C165.788 278.156 164.772 278.516 163.628 278.92C156.752 281.364 145.3 285.512 128 292C96 304 96 336 96 336H304C304 336 304 304 272 292Z" fill="#EAD6C7"/>
<path d="M304 336H96C96 336 96 304 128 292C145.28 285.52 156.76 281.36 163.64 278.92C164.76 278.52 165.8 278.16 166.68 277.84C169.32 276.92 171.24 274.68 171.8 272.04C177.84 274 187.2 276 200 276C212.84 276 222.16 274.04 228.2 272.08C228.8 274.72 230.68 276.92 233.32 277.84C234.2 278.16 235.24 278.52 236.36 278.92C243.24 281.36 254.72 285.52 272 292C304 304 304 336 304 336Z" fill="#565FA1"/>
<path d="M245.892 282.344C242.056 280.952 238.888 279.816 236.36 278.916C235.24 278.516 234.2 278.156 233.32 277.836C230.68 276.916 228.8 274.716 228.2 272.076C222.16 274.04 212.84 276 200 276C187.2 276 177.84 274 171.8 272.04C171.24 274.68 169.32 276.92 166.68 277.84C165.8 278.16 164.76 278.52 163.64 278.92C161.108 279.816 157.944 280.952 154.108 282.348L170.616 336H229.384L245.892 282.344Z" fill="white"/>
<path d="M254 160C254 160 254.5 130 242.5 106C242.5 106 226 98 200 98C174 98 157.5 106 157.5 106C145.5 130 145.5 160 145.5 160" stroke="#1F212B" stroke-width="4" stroke-linejoin="round"/>
<path d="M190 214C190 214 193 218 200 218C207 218 210 214 210 214" stroke="#1F212B" stroke-width="4" stroke-linecap="round" stroke-linejoin="round"/>
<path d="M173.088 256.492C182.656 262.712 191.96 266 200 266C208.04 266 217.344 262.712 226.912 256.492" stroke="#1F212B" stroke-width="4" stroke-linejoin="round"/>
<path d="M146 158C146 158 124 160.48 124 168C124 172 125.72 180.28 128 188C130.48 196.4 132 204 140 204C140 204 140 216 140 220C140 228 154.24 246.6 172 258.16V270.32C172 270.92 171.92 271.48 171.8 272.04C171.24 274.68 169.32 276.92 166.68 277.84C165.8 278.16 164.76 278.52 163.64 278.92C156.76 281.36 145.28 285.52 128 292C96 304 96 336 96 336H304C304 336 304 304 272 292C254.72 285.52 243.24 281.36 236.36 278.92C235.24 278.52 234.2 278.16 233.32 277.84C230.68 276.92 228.8 274.72 228.2 272.08C228.08 271.52 228 270.92 228 270.32V258.16C245.76 246.6 260 228 260 220C260 216 260 204 260 204C268 204 269.52 196.4 272 188C274.28 180.28 276 172 276 168C276 160.48 254 158 254 158" stroke="#1F212B" stroke-width="8" stroke-linejoin="round"/>
<path d="M268.44 161.32C269.416 159.776 270 157.96 270 156C270 154.16 269.468 152.456 268.6 150.972C271.864 148.408 274 144.472 274 140C274 135.264 271.632 131.092 268.032 128.56C269.268 126.672 270 124.424 270 122C270 116.216 265.908 111.392 260.46 110.256C261.412 108.368 262 106.26 262 104C262 96.876 256.66 91.064 249.78 90.18C249.892 89.464 250 88.748 250 88C250 80.268 243.732 74 236 74C234.9 74 233.844 74.156 232.816 74.396C230.652 69.46 225.736 66 220 66C218.432 66 216.948 66.316 215.54 66.792C213.348 63.9 209.908 62 206 62C202.912 62 200.128 63.2 198 65.116C195.872 63.2 193.088 62 190 62C186.092 62 182.652 63.9 180.46 66.792C179.052 66.316 177.568 66 176 66C170.264 66 165.348 69.46 163.184 74.396C162.156 74.156 161.1 74 160 74C152.268 74 146 80.268 146 88C146 88.748 146.108 89.464 146.22 90.18C139.34 91.064 134 96.876 134 104C134 106.26 134.588 108.368 135.54 110.256C130.092 111.392 126 116.216 126 122C126 124.424 126.732 126.672 127.968 128.56C124.368 131.092 122 135.264 122 140C122 144.472 124.136 148.408 127.4 150.972C126.532 152.456 126 154.16 126 156C126 158.564 126.992 160.876 128.58 162.644" stroke="#1F212B" stroke-width="4" stroke-linejoin="round"/>
<path d="M171.116 273.956C177.364 275.972 186.908 278 200 278C202.1 278 204.08 277.932 206 277.836" stroke="#1F212B" stroke-width="4" stroke-linecap="round" stroke-linejoin="round"/>
<path d="M191.872 175.74C191.128 184.504 187.168 195.12 172.544 195.984C151.916 195.952 148 187.528 148 172V164.72C148 160.628 151.076 157.208 155.144 156.756C159.204 156.312 163.596 156 168 156C176.28 156 186.6 157.86 190.276 161.932C190.908 163.684 192.452 168.824 191.872 175.74ZM193.78 159.892C189.036 153.728 176 152 168 152C152.016 152 136.06 155.972 136 155.972L137.3 163.688C142.964 162.292 144 168 144 172C144 188 148 199.984 172.652 199.984C190.848 198.976 195.104 184.924 195.856 176.076C196.668 166.432 193.776 159.924 193.78 159.892Z" fill="#1F212B"/>
<path d="M208 172.5C208 172.5 206 168 200 168C194 168 192 172 192 172V164H208V172.5ZM200 240C181.216 240 169.104 231.08 168.6 230.7C167.936 230.204 167.804 229.268 168.3 228.604C168.796 227.944 169.732 227.804 170.4 228.3C170.516 228.388 182.26 236 200 236C217.74 236 229.484 228.388 229.6 228.3C230.268 227.804 231.204 227.944 231.7 228.604C232.196 229.268 232.06 230.204 231.4 230.7C230.896 231.08 218.784 240 200 240ZM172 160C168.804 160 166.072 162.356 164.788 165.74C165.512 164.712 166.648 164 168 164C170.208 164 172 165.792 172 168C172 170.208 170.208 172 168 172C165.992 172 164.404 170.496 164.116 168.572C164.06 169.04 164 169.512 164 170C164 175.524 167.58 180 172 180C176.42 180 180 175.524 180 170C180 164.476 176.42 160 172 160ZM228 160C224.804 160 222.072 162.356 220.788 165.74C221.512 164.712 222.648 164 224 164C226.208 164 228 165.792 228 168C228 170.208 226.208 172 224 172C221.992 172 220.404 170.496 220.116 168.572C220.06 169.04 220 169.512 220 170C220 175.524 223.58 180 228 180C232.42 180 236 175.524 236 170C236 164.476 232.42 160 228 160Z" fill="#1F212B"/>
<path d="M209.724 161.932C213.4 157.86 223.72 156 232 156C236.404 156 240.796 156.312 244.856 156.76C248.924 157.208 252 160.628 252 164.72V172C252 187.528 248.084 195.952 227.46 195.984C212.836 195.12 208.876 184.504 208.132 175.74C207.548 168.824 209.092 163.684 209.724 161.932ZM204.144 176.076C204.896 184.924 209.148 198.972 227.348 199.984C252 199.984 256 188 256 172C256 168 257.036 162.292 262.7 163.688L264 155.972C263.94 155.972 247.984 152 232 152C224 152 210.964 153.728 206.22 159.892C206.224 159.924 203.332 166.432 204.144 176.076ZM241.256 143.004L244 137.764C238.892 136.572 233.44 135.992 228 136C221.08 136.012 214.176 136.988 208 138.892L211.46 144C216.532 142.332 222.26 141.512 228 141.5C232.512 141.488 237.036 141.964 241.256 143.004ZM172 141.5C177.74 141.512 183.468 142.332 188.54 144L192 138.892C185.824 136.988 178.92 136.016 172 136C166.56 135.988 161.108 136.572 156 137.764L158.744 143.004C162.964 141.964 167.488 141.488 172 141.5Z" fill="#1F212B"/>
<path d="M192 164H208V172C208 172 206 168 200 168C194 168 192 172.5 192 172.5V164Z" fill="#1F212B"/>
<path d="M214 277.148C215.404 276.972 216.728 276.768 218 276.552" stroke="#1F212B" stroke-width="4" stroke-linecap="round" stroke-linejoin="round"/>
<path d="M186 334C186 334 186 314.2 195.332 304H204.664C213.996 314.2 213.996 334 213.996 334H186Z" fill="#F15B6C"/>
<path d="M186 334C186 334 186 314.2 195.332 304H204.664C213.996 314.2 213.996 334 213.996 334H186Z" stroke="#1F212B" stroke-width="4"/>
<path d="M200 278L186 294C186 294 189.5 302 200 306C210.5 302 214 294 214 294L200 278Z" fill="#F15B6C"/>
<path d="M186 294L200 278L214 294M186 294C186 294 189.5 302 200 306C210.5 302 214 294 214 294M186 294L178 302C158 294 154 282 154 282L170 334M214 294L222 302C242 294 246 282 246 282L230 334" stroke="#1F212B" stroke-width="4" stroke-linecap="round" stroke-linejoin="round"/>
</svg>
