<svg width="400" height="400" viewBox="0 0 400 400" fill="none" xmlns="http://www.w3.org/2000/svg">
<path d="M272 292C254.7 285.512 243.248 281.364 236.372 278.92C235.228 278.512 234.212 278.156 233.316 277.84C230.112 276.712 228 273.7 228 270.304V258.168C245.768 246.612 260 227.996 260 220C260 216 260 204 260 204C268 204 269.524 196.408 272 188C274.28 180.26 276 172 276 168C276 160.5 262.972 158 262.972 158H262.488C262.364 151 261.188 118.372 251.004 98C251.004 98 226.004 90 200.004 90C174.004 90 149.004 98 149.004 98C138.792 118.428 137.276 151.136 137.048 158.056C134.032 158.444 124 161.108 124 168C124 172 125.72 180.26 128 188C130.476 196.408 132 204 140 204C140 204 140 216 140 220C140 227.996 154.232 246.612 172 258.168V270.304C172 273.7 169.888 276.712 166.684 277.84C165.788 278.156 164.772 278.516 163.628 278.92C156.752 281.364 145.3 285.512 128 292C96 304 96 336 96 336H304C304 336 304 304 272 292Z" fill="#CCAC94"/>
<path d="M304 336H96C96 336 96 304 128 292C145.28 285.52 156.76 281.36 163.64 278.92C164.76 278.52 165.8 278.16 166.68 277.84C169.32 276.92 171.24 274.68 171.8 272.04C177.84 274 187.2 276 200 276C212.84 276 222.16 274.04 228.2 272.08C228.8 274.72 230.68 276.92 233.32 277.84C234.2 278.16 235.24 278.52 236.36 278.92C243.24 281.36 254.72 285.52 272 292C304 304 304 336 304 336Z" fill="white"/>
<path d="M200 268C191.576 268 181.896 264.6 172 258.168L174.18 254.816C183.42 260.824 192.352 264 200 264C207.648 264 216.58 260.824 225.82 254.816L228 258.168C218.104 264.6 208.424 268 200 268Z" fill="#1F212B"/>
<path d="M308 336C308 338.2 306.2 340 304 340H96C93.8 340 92 338.2 92 336C92 335.64 92.4 301.08 126.6 288.24C144.6 281.52 155.96 277.4 162.32 275.16L165.32 274.08C166.64 273.6 167.6 272.52 167.88 271.2C167.96 270.84 168 270.56 168 270.32V260.28C151.04 248.64 136 229.84 136 220V207.48C128.88 205.44 126.68 197.84 124.72 191.04L124.16 189.12C122.24 182.64 120 173.2 120 168C120 163.8 123.12 160.84 127.36 158.72C127.92 158.44 128.52 158.16 129.12 157.92C132.56 156.44 136.52 155.48 139.96 154.88C139.4 157.6 138.92 160.4 138.6 163.36C136.16 163.96 133.92 164.6 132.2 165.36C131.8 165.52 131.44 165.68 131.12 165.84C129.36 166.6 128.24 167.4 128 168.04C128 171.4 129.6 179.36 131.84 186.88L132.4 188.84C134.92 197.48 136.2 200 140 200C142.2 200 144 201.8 144 204V220C144 225.96 156.96 243.6 174.2 254.8C175.32 255.56 176 256.8 176 258.16V270.32C176 271.16 175.92 272 175.72 272.88C174.84 276.92 171.88 280.28 168 281.6L165 282.68C158.64 284.92 147.36 289 129.4 295.76C106.84 304.2 101.6 323.6 100.36 332H299.68C298.48 323.6 293.36 304.28 270.6 295.76C252.64 289 241.36 284.92 235.04 282.68L231.96 281.6C228.12 280.28 225.24 277.04 224.32 272.96C224.08 272.04 224 271.16 224 270.32V258.16C224 256.8 224.68 255.56 225.8 254.8C243.04 243.6 256 225.96 256 220V204C256 201.8 257.8 200 260 200C263.8 200 265.08 197.48 267.6 188.84L268.16 186.88C270.4 179.36 272 171.4 272 168C271.76 167.36 270.68 166.6 268.92 165.8C268.6 165.64 268.24 165.48 267.84 165.32C266.12 164.64 263.88 163.96 261.4 163.32C261.08 160.36 260.6 157.6 260.04 154.88C263.48 155.48 267.44 156.44 270.88 157.92C271.48 158.16 272.08 158.44 272.64 158.72C276.88 160.84 280 163.8 280 168C280 173.2 277.76 182.64 275.84 189.12L275.28 191.04C273.32 197.84 271.12 205.44 264 207.48V220C264 229.84 248.96 248.64 232 260.28V270.32C232 270.6 232.04 270.92 232.12 271.24C232.4 272.56 233.36 273.6 234.64 274.08L237.72 275.16C244.04 277.4 255.4 281.52 273.4 288.24C307.6 301.08 308 335.64 308 336Z" fill="#1F212B"/>
<path d="M200 280C186.224 280 176.356 277.748 170.504 275.86C169.452 275.52 168.876 274.396 169.216 273.344C169.556 272.292 170.684 271.716 171.732 272.056C177.308 273.856 186.744 276 200 276C202.068 276 204.012 275.932 205.9 275.84C207.144 275.716 207.944 276.632 207.996 277.736C208.056 278.836 207.204 279.78 206.1 279.832C204.152 279.932 202.136 280 200 280Z" fill="#1F212B"/>
<path d="M213.996 279.148C213.004 279.148 212.144 278.408 212.016 277.4C211.876 276.304 212.652 275.304 213.748 275.16C215.128 274.984 216.42 274.784 217.668 274.576C218.748 274.396 219.788 275.124 219.972 276.216C220.156 277.304 219.42 278.336 218.332 278.52C217.036 278.74 215.688 278.944 214.252 279.128C214.168 279.144 214.084 279.148 213.996 279.148Z" fill="#1F212B"/>
<path d="M204.148 304C211.412 299.804 214 294 214 294L200 278L186 294C186 294 188.588 299.804 195.852 304H195.332C186 314.2 186 334 186 334H214C214 334 214 314.2 204.668 304H204.148Z" fill="#8F9EB6"/>
<path d="M216 336H184V334C184 333.16 184.112 313.3 193.856 302.648L194.448 302L200 305.5L205.552 302L206.144 302.648C215.888 313.3 216 333.16 216 334V336ZM188.072 332H211.928C211.648 326.992 210.288 313.772 203.764 306H196.24C189.704 313.788 188.352 326.996 188.072 332Z" fill="#1F212B"/>
<path d="M200 308C199.756 308 199.516 307.956 199.288 307.868C188.132 303.62 184.324 295.16 184.168 294.8C183.856 294.088 183.984 293.264 184.496 292.684L198.496 276.684C199.252 275.816 200.748 275.816 201.504 276.684L215.504 292.684C216.016 293.268 216.144 294.092 215.832 294.8C215.676 295.16 211.868 303.62 200.712 307.868C200.484 307.956 200.244 308 200 308ZM188.42 294.268C189.696 296.356 193.164 301.02 200 303.848C206.892 301.008 210.324 296.364 211.584 294.272L200 281.04L188.42 294.268Z" fill="#1F212B"/>
<path d="M222 304C221.48 304 220.968 303.796 220.584 303.416L212.584 295.416C211.804 294.636 211.804 293.368 212.584 292.588C213.364 291.808 214.632 291.808 215.412 292.588L222.472 299.648C240.344 292.1 244.064 281.48 244.1 281.372C244.456 280.324 245.588 279.764 246.632 280.108C247.68 280.46 248.244 281.592 247.896 282.64C247.72 283.168 243.364 295.612 222.74 303.864C222.504 303.952 222.248 304 222 304Z" fill="#1F212B"/>
<path d="M178 304C177.748 304 177.496 303.952 177.256 303.856C156.632 295.604 152.276 283.16 152.1 282.632C151.752 281.584 152.32 280.452 153.364 280.1C154.412 279.756 155.54 280.312 155.892 281.356C155.944 281.5 159.836 292.164 177.524 299.64L184.584 292.58C185.364 291.8 186.632 291.8 187.412 292.58C188.192 293.36 188.192 294.628 187.412 295.408L179.412 303.408C179.032 303.796 178.52 304 178 304Z" fill="#1F212B"/>
<path d="M250 86C248 81 236 62 198 62C175.88 62 126 72 126 138C126 145.96 127.32 152.6 129.12 157.92C130.04 160.76 131.12 163.24 132.16 165.32C132.16 165.32 132.16 165.36 132.2 165.36C135.12 171.12 138 174 138 174C138 174 138 169.56 139.8 163.04C140.44 160.44 141.4 157.52 142.8 154.4C144.48 150.48 146.84 142.24 150 138C180 138 206 118 206 118V130C206 130 240.12 120.92 242 106C242 115.68 255.04 130.56 260.04 154.84V154.88C260.6 157.6 261.08 160.36 261.4 163.32V163.36C261.8 166.72 262 170.28 262 174C262 174 265.28 171.52 268.88 165.84C268.88 165.84 268.88 165.8 268.92 165.8C270.16 163.84 271.44 161.52 272.64 158.72C275.6 151.84 278 142.44 278 130C278 110 265.84 92.72 250 86Z" fill="#565FA1"/>
<path d="M138 176C137.48 176 136.968 175.796 136.584 175.416C136.072 174.9 124 162.548 124 138C124 63.764 185.644 60.004 198 60.004C237.432 60.004 249.388 80.132 251.504 84.472C268.584 92.092 280 110.284 280 130C280 162.624 263.888 175.084 263.2 175.6C262.596 176.056 261.784 176.128 261.108 175.788C260.428 175.448 260 174.756 260 174C260 151.64 252.072 135.472 246.28 123.668C244.268 119.564 242.5 115.952 241.356 112.704C232.928 124.764 207.756 131.604 206.516 131.932C205.908 132.1 205.268 131.964 204.78 131.588C204.288 131.208 204 130.62 204 130V121.872C196.164 127.148 175.096 139.648 151.02 139.992C140.128 155.148 140 173.812 140 174C140 174.808 139.512 175.54 138.764 175.848C138.52 175.952 138.256 176 138 176ZM242 104C242.04 104 242.084 104 242.124 104.004C243.18 104.072 244 104.944 244 106C244 109.928 246.588 115.212 249.872 121.904C255.424 133.224 262.884 148.432 263.888 169.264C268.332 163.996 276 151.752 276 130C276 111.588 265.24 94.648 249.22 87.84C248.728 87.632 248.34 87.236 248.144 86.744C247.772 85.816 238.58 64.004 198 64.004C186.312 64.004 128 67.572 128 138C128 153.144 132.988 163.384 136.372 168.584C137.2 161.36 139.86 148.188 148.4 136.8C148.78 136.296 149.372 136 150 136C178.94 136 204.528 116.608 204.78 116.416C205.384 115.956 206.208 115.872 206.88 116.208C207.568 116.544 208 117.24 208 118V127.344C218.388 124.18 238.736 115.96 240.016 105.752C240.14 104.748 240.996 104 242 104Z" fill="#1F212B"/>
<path d="M200 220C192.092 220 188.548 215.396 188.4 215.2C187.736 214.316 187.916 213.064 188.8 212.4C189.68 211.744 190.924 211.92 191.588 212.788C191.72 212.948 194.22 216 200 216C205.816 216 208.312 212.916 208.416 212.78C209.092 211.92 210.344 211.752 211.212 212.42C212.08 213.088 212.26 214.324 211.6 215.196C211.452 215.396 207.908 220 200 220Z" fill="#1F212B"/>
<path d="M200 240C181.216 240 169.104 231.08 168.6 230.7C167.936 230.204 167.804 229.268 168.3 228.604C168.796 227.944 169.732 227.804 170.4 228.3C170.516 228.384 182.26 236 200 236C217.74 236 229.484 228.388 229.6 228.3C230.268 227.804 231.204 227.944 231.7 228.604C232.196 229.268 232.06 230.204 231.4 230.7C230.896 231.08 218.784 240 200 240Z" fill="#1F212B"/>
<path d="M172 160C168.804 160 166.072 162.356 164.788 165.74C165.512 164.712 166.648 164 168 164C170.208 164 172 165.792 172 168C172 170.208 170.208 172 168 172C165.992 172 164.404 170.496 164.116 168.572C164.06 169.04 164 169.508 164 170C164 175.524 167.58 180 172 180C176.42 180 180 175.524 180 170C180 164.476 176.42 160 172 160Z" fill="#1F212B"/>
<path d="M228 160C224.804 160 222.072 162.356 220.788 165.74C221.512 164.712 222.648 164 224 164C226.208 164 228 165.792 228 168C228 170.208 226.208 172 224 172C221.992 172 220.404 170.496 220.116 168.572C220.06 169.04 220 169.508 220 170C220 175.524 223.58 180 228 180C232.42 180 236 175.524 236 170C236 164.476 232.42 160 228 160Z" fill="#1F212B"/>
<path d="M241.256 151.004L244 145.764C238.892 144.572 233.44 143.992 228 144C221.08 144.012 214.176 144.988 208 146.892L211.46 152C216.532 150.332 222.26 149.512 228 149.5C232.512 149.488 237.036 149.964 241.256 151.004Z" fill="#1F212B"/>
<path d="M172 149.5C177.74 149.512 183.468 150.332 188.54 152L192 146.892C185.824 144.988 178.92 144.016 172 144C166.56 143.988 161.108 144.572 156 145.764L158.744 151.004C162.964 149.964 167.488 149.488 172 149.5Z" fill="#1F212B"/>
</svg>
