<svg width="400" height="400" viewBox="0 0 400 400" fill="none" xmlns="http://www.w3.org/2000/svg">
<path d="M200 101.496C127.1 101.496 68 119.964 68 142.748C68 165.532 127.1 184 200 184C272.9 184 332 165.532 332 142.748C332 119.964 272.9 101.496 200 101.496Z" fill="#B77748"/>
<path d="M118 110C86.556 117.54 68 129.404 68 142.748C68 165.532 127.1 184 200 184C272.9 184 332 165.532 332 142.748C332 129.364 313.604 117.536 282 110" stroke="#1F212B" stroke-width="4" stroke-linecap="round" stroke-linejoin="round"/>
<path d="M272 312C254.7 305.512 243.248 301.364 236.372 298.92C235.228 298.512 234.212 298.156 233.316 297.84C230.112 296.712 228 293.7 228 290.304V278.168C245.768 266.612 260 247.996 260 240C260 236 260 224 260 224C268 224 269.524 216.408 272 208C274.28 200.26 276 192 276 188C276 180.5 262.972 178 262.972 178H262.488C262.364 171 261.188 138.372 251.004 118C251.004 118 226.004 110 200.004 110C174.004 110 149.004 118 149.004 118C138.792 138.428 137.276 171.136 137.048 178.056C134.032 178.444 124 181.108 124 188C124 192 125.72 200.26 128 208C130.476 216.408 132 224 140 224C140 224 140 236 140 240C140 247.996 154.232 266.612 172 278.168V290.304C172 293.7 169.888 296.712 166.684 297.84C165.788 298.156 164.772 298.516 163.628 298.92C156.752 301.364 145.3 305.512 128 312C96 324 96 356 96 356H304C304 356 304 324 272 312Z" fill="#EAD6C7"/>
<path d="M272 312C258.296 306.86 248.308 303.208 241.312 300.688L200 342L158.688 300.688C151.692 303.208 141.704 306.86 128 312C96 324 96 356 96 356H304C304 356 304 324 272 312Z" fill="#3070B7"/>
<path d="M241.348 300.616L200.028 341.936L158.708 300.616C160.588 299.976 162.228 299.376 163.668 298.856C164.788 298.456 165.828 298.096 166.708 297.776C168.908 297.016 170.588 295.336 171.388 293.296L198.628 320.536L228.068 291.136C228.108 291.456 228.188 291.736 228.228 292.016C228.828 294.656 230.708 296.856 233.348 297.776C234.228 298.096 235.268 298.456 236.388 298.856C237.828 299.376 239.468 299.976 241.348 300.616Z" fill="#3070B7"/>
<path d="M208 188.5C208 188.5 206 184 200 184C194 184 192 188 192 188V180H208V188.5Z" fill="#1F212B"/>
<path d="M172 180C168.804 180 166.072 182.356 164.788 185.74C165.512 184.712 166.648 184 168 184C170.208 184 172 185.792 172 188C172 190.208 170.208 192 168 192C165.992 192 164.404 190.496 164.116 188.572C164.06 189.04 164 189.512 164 190C164 195.524 167.58 200 172 200C176.42 200 180 195.524 180 190C180 184.476 176.42 180 172 180Z" fill="#1F212B"/>
<path d="M228 180C224.804 180 222.072 182.356 220.788 185.74C221.512 184.712 222.648 184 224 184C226.208 184 228 185.792 228 188C228 190.208 226.208 192 224 192C221.992 192 220.404 190.496 220.116 188.572C220.06 189.04 220 189.512 220 190C220 195.524 223.58 200 228 200C232.42 200 236 195.524 236 190C236 184.476 232.42 180 228 180Z" fill="#1F212B"/>
<path d="M241.256 159.004L244 153.764C238.892 152.572 233.44 151.992 228 152C221.08 152.012 214.176 152.988 208 154.892L211.46 160C216.532 158.332 222.26 157.512 228 157.5C232.512 157.488 237.036 157.964 241.256 159.004Z" fill="#1F212B"/>
<path d="M258.496 304H244V340H156V304H141.504C136.256 304 132 308.256 132 313.504V356H144H156H244H256H268V313.504C268 308.256 263.744 304 258.496 304Z" fill="#60BD91"/>
<path d="M172 157.5C177.74 157.512 183.468 158.332 188.54 160L192 154.892C185.824 152.988 178.92 152.016 172 152C166.56 151.988 161.108 152.572 156 153.764L158.744 159.004C162.964 157.964 167.488 157.488 172 157.5Z" fill="#1F212B"/>
<path d="M200 240C192.088 240 188.548 235.396 188.4 235.2C187.74 234.316 187.92 233.064 188.804 232.4C189.68 231.74 190.924 231.916 191.592 232.788C191.72 232.948 194.22 236 200 236C205.816 236 208.308 232.916 208.416 232.78C209.092 231.916 210.348 231.752 211.212 232.42C212.08 233.088 212.26 234.324 211.604 235.196C211.452 235.396 207.912 240 200 240Z" fill="#1F212B"/>
<path d="M200 288C191.576 288 181.896 284.6 172 278.168L174.18 274.816C183.42 280.824 192.352 284 200 284C207.648 284 216.58 280.824 225.82 274.816L228 278.168C218.104 284.6 208.424 288 200 288Z" fill="#1F212B"/>
<path d="M304 360H96C93.788 360 92 358.212 92 356C92 355.652 92.396 321.08 126.592 308.252C144.592 301.5 155.948 297.4 162.304 295.152L165.308 294.08C166.64 293.616 167.608 292.52 167.888 291.204C167.964 290.848 168 290.58 168 290.32V280.296C151.032 268.644 136 249.86 136 240V227.476C128.876 225.444 126.688 217.86 124.724 211.052L124.164 209.136C122.244 202.632 120 193.2 120 188C120 177.988 137.872 174.892 145.552 174.024L146.452 181.976C136.968 183.052 128.6 186.18 127.996 188.052C128.004 191.412 129.616 199.344 131.84 206.868L132.412 208.832C134.908 217.484 136.204 220 140 220C142.212 220 144 221.788 144 224V240C144 245.964 156.96 263.6 174.184 274.808C175.316 275.548 176 276.808 176 278.16V290.32C176 291.148 175.908 291.984 175.712 292.888C174.852 296.912 171.896 300.264 167.992 301.62L164.992 302.692C158.652 304.94 147.344 309.02 129.408 315.752C106.848 324.208 101.596 343.604 100.372 352.004H299.66C298.5 343.596 293.36 324.284 270.592 315.752C252.656 309.02 241.344 304.94 235.02 302.696L231.944 301.604C228.1 300.268 225.216 297.032 224.296 292.972C224.096 292.04 224 291.16 224 290.32V278.16C224 276.808 224.684 275.548 225.816 274.808C243.04 263.6 256 245.964 256 240V224C256 221.788 257.788 220 260 220C263.796 220 265.092 217.484 267.592 208.832L268.164 206.868C270.388 199.344 272 191.412 272 188C271.404 186.172 263.036 183.044 253.552 181.976L254.452 174.024C262.128 174.892 280 177.988 280 188C280 193.2 277.756 202.632 275.836 209.132L275.276 211.048C273.312 217.856 271.124 225.444 264 227.472V240C264 249.86 248.968 268.644 232 280.296V290.32C232 290.588 232.04 290.904 232.108 291.232C232.404 292.544 233.356 293.62 234.632 294.064L237.712 295.156C244.052 297.404 255.408 301.504 273.408 308.252C307.604 321.08 308 355.652 308 356C308 358.212 306.212 360 304 360Z" fill="#1F212B"/>
<path d="M191.872 195.74C191.128 204.504 187.168 215.12 172.544 215.984C151.916 215.952 148 207.528 148 192V184.72C148 180.628 151.076 177.208 155.144 176.756C159.204 176.312 163.596 176 168 176C176.28 176 186.6 177.86 190.276 181.932C190.908 183.684 192.452 188.824 191.872 195.74ZM193.78 179.892C189.036 173.728 176 172 168 172C152.016 172 136.06 175.972 136 175.972L137.3 183.688C142.964 182.292 144 188 144 192C144 208 148 219.984 172.652 219.984C190.848 218.976 195.104 204.924 195.856 196.076C196.668 186.432 193.776 179.924 193.78 179.892Z" fill="#1F212B"/>
<path d="M200 260C181.216 260 169.104 251.08 168.6 250.7C167.936 250.204 167.804 249.268 168.3 248.604C168.796 247.944 169.732 247.804 170.4 248.3C170.516 248.388 182.26 256 200 256C217.74 256 229.484 248.388 229.6 248.3C230.268 247.804 231.204 247.944 231.7 248.604C232.196 249.268 232.06 250.204 231.4 250.7C230.896 251.08 218.784 260 200 260Z" fill="#1F212B"/>
<path d="M209.724 181.932C213.4 177.86 223.72 176 232 176C236.404 176 240.796 176.312 244.856 176.76C248.924 177.208 252 180.628 252 184.72V192C252 207.528 248.084 215.952 227.46 215.984C212.836 215.12 208.876 204.504 208.132 195.74C207.548 188.824 209.092 183.684 209.724 181.932ZM204.144 196.076C204.896 204.924 209.148 218.972 227.348 219.984C252 219.984 256 208 256 192C256 188 257.036 182.292 262.7 183.688L264 175.972C263.94 175.972 247.984 172 232 172C224 172 210.964 173.728 206.22 179.892C206.224 179.924 203.332 186.432 204.144 196.076Z" fill="#1F212B"/>
<path d="M200 90C136 90 122 130 122 154C122 182 138 194 138 194C138 158 158 142 158 130C159.868 144.904 194 150 194 150V138C194 138 220 162 250 162C262 178 262 194 262 194C262 194 278 178 278 150C278 110 232 90 200 90Z" fill="#565FA1"/>
<path d="M138 196C137.576 196 137.152 195.864 136.8 195.6C136.112 195.088 120 182.672 120 154C120 142.98 123.856 88 200 88C233.54 88 280 109.548 280 150C280 178.5 264.088 194.736 263.416 195.416C262.84 195.988 261.98 196.156 261.24 195.848C260.492 195.54 260.004 194.812 260 194.004C260 193.852 259.828 178.96 248.984 163.992C224.956 163.58 203.952 148.724 196 142.324V150C196 150.584 195.748 151.136 195.304 151.516C194.868 151.896 194.304 152.056 193.704 151.98C192.456 151.792 167.08 147.872 158.628 136.5C157.48 139.536 155.704 142.808 153.68 146.524C147.908 157.144 140 171.684 140 194C140 194.756 139.572 195.448 138.896 195.788C138.612 195.928 138.304 196 138 196ZM200 92C127.664 92 124 143.648 124 154C124 173.048 131.664 184.408 136.108 189.392C137.092 168.656 144.588 154.868 150.164 144.612C153.424 138.62 156 133.884 156 130C156 128.944 156.82 128.072 157.876 128.004C159.064 127.928 159.856 128.708 159.984 129.752C161.256 139.912 181.74 145.744 192 147.636V138C192 137.204 192.468 136.488 193.2 136.168C193.928 135.844 194.776 135.988 195.356 136.528C195.608 136.764 221.156 160 250 160C250.628 160 251.224 160.296 251.6 160.8C259.884 171.848 262.636 182.816 263.544 188.976C268.028 182.896 276 169.352 276 150C276 112.156 231.864 92 200 92Z" fill="#1F212B"/>
<path d="M200 324C199.488 324 198.976 323.804 198.584 323.416L169.972 294.804C169.192 294.024 169.192 292.756 169.972 291.976C170.752 291.196 172.02 291.196 172.8 291.976L200 319.172L208.584 310.588C209.364 309.808 210.632 309.808 211.412 310.588C212.192 311.368 212.192 312.636 211.412 313.416L201.412 323.416C201.024 323.804 200.512 324 200 324Z" fill="#1F212B"/>
<path d="M218 306C217.488 306 216.976 305.804 216.584 305.416C215.804 304.636 215.804 303.368 216.584 302.588L220.584 298.588C221.364 297.808 222.632 297.808 223.412 298.588C224.192 299.368 224.192 300.636 223.412 301.416L219.412 305.416C219.024 305.804 218.512 306 218 306Z" fill="#1F212B"/>
<path d="M232 32C216 32 216 46.868 200 46.868C184 46.868 184 32 168 32C152 32 120 76.816 120 113.768V114.208C142.464 109.28 170.056 106.336 200 106.336C229.936 106.336 257.528 109.28 280 114.208V113.768C280 76.816 248 32 232 32Z" fill="#EAA871"/>
<path d="M124 90C121.888 97.528 120 104.672 120 112C120 112 152 104.5 200 104.5C248 104.5 280 112 280 112C280 104.672 278.112 97.528 276 90C276 90 232 82 200 82C168 82 124 90 124 90Z" fill="#D68F53"/>
<path d="M200 100C170.056 100 142.464 103.564 120 109.532V136C120 136 144 118 200 118C256 118 280 136 280 136V109.532C257.528 103.564 229.936 100 200 100Z" fill="#B77748"/>
<path d="M279.752 108C276.744 72.316 247.176 32 232 32C216 32 216 46.868 200 46.868C184 46.868 184 32 168 32C152.824 32 123.256 72.316 120.248 108" stroke="#1F212B" stroke-width="4" stroke-linecap="round" stroke-linejoin="round"/>
<path d="M232 85.888C221.276 84.796 210.02 84 200.004 84C168.264 84 124 92 124 92" stroke="#1F212B" stroke-width="4" stroke-linecap="round" stroke-linejoin="round"/>
<path d="M256 88.84C252.312 88.316 248.264 87.768 244 87.244" stroke="#1F212B" stroke-width="4" stroke-linecap="round" stroke-linejoin="round"/>
<path d="M276 92C276 92 273 91.456 268 90.656" stroke="#1F212B" stroke-width="4" stroke-linecap="round" stroke-linejoin="round"/>
<path d="M280 109.532C257.528 103.564 229.936 100 200 100C170.056 100 142.464 103.564 120 109.532" stroke="#1F212B" stroke-width="4" stroke-linecap="round" stroke-linejoin="round"/>
<path d="M120 136C120 136 144 118 200 118C256 118 280 136 280 136" stroke="#1F212B" stroke-width="4" stroke-linecap="round" stroke-linejoin="round"/>
<path d="M130 312V354" stroke="#1F212B" stroke-width="4" stroke-linecap="round" stroke-linejoin="round"/>
<path d="M270 312V354" stroke="#1F212B" stroke-width="4" stroke-linecap="round" stroke-linejoin="round"/>
<path d="M158 302V338H242V302" stroke="#1F212B" stroke-width="4" stroke-linecap="round" stroke-linejoin="round"/>
</svg>
